<svg width="402" height="293" viewBox="0 0 402 293" fill="none" xmlns="http://www.w3.org/2000/svg">
<g clip-path="url(#clip0_101_2)">
<path fill-rule="evenodd" clip-rule="evenodd" d="M382.083 273.419C369.601 285.519 352.82 292.167 335.433 291.902C326.435 291.664 317.591 289.521 309.483 285.611C301.376 281.703 294.191 276.12 288.404 269.229L202.207 173.96C196.918 168.115 201.151 158.779 209.035 158.899L337.437 160.86C354.823 161.125 371.393 168.283 383.499 180.759C395.606 193.233 402.258 210.005 401.992 227.382C401.726 244.759 394.565 261.319 382.083 273.419ZM274.254 188.567C266.354 188.446 262.128 197.814 267.447 203.651L310.487 250.889C313.569 254.664 317.435 257.724 321.819 259.856C326.202 261.988 330.997 263.142 335.871 263.236C345.651 263.386 355.09 259.646 362.111 252.84C369.133 246.034 373.161 236.719 373.311 226.944C373.461 217.169 369.718 207.736 362.909 200.718C356.099 193.701 346.778 189.675 336.998 189.526L274.254 188.567Z" fill="#FF025D"/>
<path fill-rule="evenodd" clip-rule="evenodd" d="M380.93 19.5843C368.269 7.67173 351.391 1.27408 334.01 1.79866C325.017 2.17044 316.204 4.446 308.157 8.47487C300.109 12.5038 293.008 18.1941 287.324 25.1699L202.558 121.713C197.357 127.636 201.729 136.908 209.611 136.67L337.968 132.796C355.35 132.272 371.81 124.868 383.729 112.213C395.648 99.5593 402.049 82.691 401.525 65.3196C400.999 47.9482 393.592 31.4967 380.93 19.5843ZM274.38 106.034C266.483 106.272 262.117 96.9685 267.348 91.0524L309.679 43.1793C312.704 39.3585 316.524 36.2412 320.875 34.0438C325.227 31.8464 330.004 30.6217 334.877 30.4545C344.653 30.1593 354.147 33.758 361.269 40.4588C368.391 47.1596 372.558 56.4136 372.853 66.1849C373.149 75.9564 369.548 85.4448 362.843 92.5628C356.138 99.6807 346.88 103.845 337.103 104.14L274.38 106.034Z" fill="#FF025D"/>
<path d="M168.38 56.6141V21.0359C168.38 11.1194 168.38 6.16127 171.463 3.08063C174.545 0 179.506 0 189.428 0H221.658C242.038 0 252.227 0 255.003 6.25316C257.778 12.5063 250.94 20.0558 237.261 35.1546L205.031 70.733C189.582 87.7858 181.858 96.3122 175.12 93.7161C168.38 91.1201 168.38 79.6181 168.38 56.6141Z" fill="white"/>
<path d="M168.38 234.243V271.964C168.38 281.88 168.38 286.838 171.463 289.92C174.545 293 179.506 293 189.428 293H224.151C244.722 293 255.008 293 257.77 286.708C260.532 280.417 253.568 272.851 239.64 257.721L204.918 220C189.492 203.243 181.78 194.864 175.08 197.476C168.38 200.088 168.38 211.473 168.38 234.243Z" fill="white"/>
<path d="M146.359 293C107.542 293 70.3153 277.565 42.8676 250.091C15.4199 222.617 -1.07981e-06 185.354 0 146.5C1.07981e-06 107.646 15.4199 70.3829 42.8676 42.9089C70.3153 15.4348 107.542 -4.63332e-07 146.359 0L146.359 84.7276C129.992 84.7276 114.295 91.2358 102.722 102.82C91.1481 114.405 84.6462 130.117 84.6462 146.5C84.6462 162.883 91.1481 178.595 102.722 190.18C114.295 201.764 129.992 208.272 146.359 208.272L146.359 293Z" fill="white"/>
</g>
<defs>
<clipPath id="clip0_101_2">
<rect width="402" height="293" fill="white"/>
</clipPath>
</defs>
</svg>
