<svg width="95" height="88" viewBox="0 0 95 88" fill="none" xmlns="http://www.w3.org/2000/svg">
<path fill-rule="evenodd" clip-rule="evenodd" d="M68.9744 40.9006C71.4736 51.6092 80.4499 59.5357 91.1401 59.5357C92.242 59.5357 93.3257 59.4515 94.3859 59.2887V46.7465C93.3567 47.0735 92.2674 47.2489 91.1401 47.2489C86.834 47.2489 83.0815 44.6887 81.1162 40.9006H68.9744Z" fill="white"/>
<path fill-rule="evenodd" clip-rule="evenodd" d="M44.1553 66.8424C46.4056 63.2833 48.1449 59.3926 49.2755 55.2644C51.2735 56.5074 53.6322 57.2253 56.1585 57.2253C63.365 57.2253 69.2071 51.3833 69.2071 44.1768C69.2071 36.9703 63.365 31.1282 56.1585 31.1282C53.6586 31.1282 51.323 31.8312 49.3384 33.0502C48.2311 28.9145 46.5135 25.0143 44.2834 21.4437C47.8338 19.5853 51.8734 18.5342 56.1585 18.5342C69.7892 18.5342 80.9359 29.1695 81.7531 42.5946H69.2163C70.5147 48.9794 73.3424 54.6102 77.1884 58.8533C72.5528 65.4832 64.8621 69.8194 56.1585 69.8194C51.8218 69.8194 47.7365 68.7428 44.1553 66.8424Z" fill="white"/>
<path fill-rule="evenodd" clip-rule="evenodd" d="M0 87.8351C0.897491 87.8898 1.80226 87.9175 2.7135 87.9175C26.9912 87.9175 46.6722 68.2365 46.6722 43.9587C46.6722 19.681 26.9912 0 2.7135 0C1.80226 0 0.897491 0.0277266 0 0.0823822V18.0293C0.89192 17.9371 1.79719 17.8898 2.7135 17.8898C17.111 17.8898 28.7824 29.5613 28.7824 43.9587C28.7824 58.3562 17.111 70.0277 2.7135 70.0277C1.79719 70.0277 0.89192 69.9804 0 69.8882V87.8351Z" fill="white"/>
</svg>
