<svg width="500" height="500" viewBox="0 0 500 500" fill="none" xmlns="http://www.w3.org/2000/svg">
<path d="M309.25 251V290.333H190.75V251H171V310H329V251H309.25Z" fill="#00C2FF"/>
<path fill-rule="evenodd" clip-rule="evenodd" d="M249.5 260C271.868 260 290 241.868 290 219.5C290 197.132 271.868 179 249.5 179C227.132 179 209 197.132 209 219.5C209 241.868 227.132 260 249.5 260ZM249.5 247.385C264.901 247.385 277.385 234.901 277.385 219.5C277.385 204.099 264.901 191.615 249.5 191.615C234.099 191.615 221.615 204.099 221.615 219.5C221.615 234.901 234.099 247.385 249.5 247.385Z" fill="white"/>
</svg>
