<svg width="132" height="52" viewBox="0 0 132 52" fill="none" xmlns="http://www.w3.org/2000/svg">
<path d="M108.519 38.7013L108.49 38.6213V38.5613L100.788 18.5968C100.623 18.1658 100.399 17.7681 100.119 17.4059C99.8382 17.0415 99.5109 16.7304 99.1413 16.4705C98.7688 16.2082 98.3685 16.0105 97.9413 15.875C97.5141 15.7394 97.0753 15.6705 96.6261 15.6727H94.5899C94.1387 15.6705 93.6981 15.7372 93.2661 15.8727C92.8341 16.0083 92.4318 16.2082 92.0574 16.4705C91.683 16.7326 91.3566 17.0459 91.0734 17.4125C90.7912 17.7769 90.5665 18.1769 90.4024 18.6124L77.7534 51.804H79.3253C79.8405 51.804 80.3542 51.7642 80.8633 51.6846C81.372 51.6021 81.8746 51.4821 82.3669 51.3222C82.8585 51.1624 83.3354 50.9644 83.7998 50.7267C84.2618 50.4912 84.7043 50.2198 85.128 49.9132C85.5513 49.6089 85.9493 49.271 86.3233 48.9002C86.6978 48.5316 87.0422 48.1357 87.3565 47.7113C87.673 47.287 87.9555 46.8426 88.2057 46.3738C88.4538 45.9049 88.6695 45.4183 88.8474 44.9162H100.888L100.364 43.443C100.228 43.0697 100.065 42.712 99.8766 42.3653C99.6885 42.0165 99.4773 41.6876 99.2392 41.3743C99.004 41.061 98.7457 40.7677 98.4673 40.4944C98.187 40.2211 97.8894 39.9723 97.5736 39.7456C97.2587 39.519 96.9275 39.319 96.5838 39.1457C96.2392 38.9701 95.884 38.8235 95.5153 38.7057C95.1496 38.588 94.7781 38.4991 94.3998 38.4391C94.0206 38.3791 93.6385 38.348 93.2545 38.348H91.2088L95.5739 26.1227L102.903 46.2382L102.94 46.336C103.092 46.7382 103.271 47.1271 103.479 47.5026C103.688 47.8757 103.921 48.2335 104.18 48.5714C104.441 48.9093 104.724 49.2267 105.027 49.5202C105.333 49.8154 105.658 50.0845 106.002 50.3268C106.347 50.5708 106.706 50.7864 107.08 50.9752C107.457 51.1624 107.842 51.32 108.242 51.4485C108.639 51.5754 109.044 51.6709 109.456 51.7352C109.867 51.8 110.282 51.833 110.697 51.8308H113.572L108.519 38.7013Z" fill="#FB005A"/>
<path d="M124.963 44.5783H113.719L130.47 21.1032C130.863 20.5477 131.062 19.9233 131.062 19.2323V18.8101C131.062 18.6035 131.043 18.3991 131.005 18.1968C130.966 17.9946 130.909 17.7991 130.832 17.6081C130.757 17.4191 130.663 17.237 130.553 17.0659C130.442 16.8948 130.318 16.737 130.177 16.5904C130.038 16.4459 129.884 16.3148 129.719 16.2015C129.554 16.086 129.381 15.9904 129.198 15.9105C129.014 15.8327 128.825 15.7727 128.631 15.7327C128.436 15.6927 128.24 15.6727 128.043 15.6727H102.484V16.3726C102.491 16.8037 102.538 17.2303 102.623 17.6503C102.709 18.0724 102.833 18.4813 102.996 18.8768C103.158 19.2723 103.357 19.6478 103.59 20.0033C103.823 20.3588 104.088 20.6877 104.384 20.9899C104.679 21.2921 104.999 21.5632 105.344 21.8009C105.69 22.0386 106.056 22.2386 106.439 22.4008C106.821 22.5653 107.217 22.6874 107.624 22.7719C108.03 22.8563 108.441 22.8963 108.855 22.8985H119.849L108.53 38.5657L108.49 38.6257L108.432 38.7079L102.918 46.3182C103.07 46.7226 103.25 47.1112 103.459 47.4849C103.667 47.8604 103.9 48.2159 104.161 48.5555C104.419 48.8933 104.703 49.209 105.008 49.5043C105.311 49.7978 105.637 50.0668 105.981 50.3109C106.326 50.5554 106.685 50.771 107.058 50.9576C107.436 51.1465 107.823 51.304 108.221 51.4309C108.618 51.56 109.023 51.6556 109.435 51.7198C109.845 51.7841 110.261 51.8154 110.678 51.8154H131.334V51.2067C131.334 50.771 131.295 50.3421 131.215 49.9132C131.133 49.4866 131.011 49.0737 130.853 48.6715C130.693 48.2693 130.496 47.8871 130.264 47.5247C130.031 47.1647 129.768 46.8292 129.472 46.5204C129.176 46.2137 128.853 45.9382 128.507 45.696C128.158 45.4538 127.791 45.2516 127.404 45.0849C127.016 44.9183 126.618 44.7917 126.207 44.7072C125.797 44.6228 125.382 44.5783 124.963 44.5783Z" fill="#FB005A"/>
<path d="M59.7835 35.4194C59.3642 35.0483 58.9448 34.6528 58.5428 34.2217C57.4139 33.0152 56.4425 31.682 55.6322 30.2244C54.8213 28.7668 54.195 27.2292 53.752 25.6116V51.7062H56.1387C56.4381 51.7062 56.7354 51.6777 57.0306 51.6152C57.3257 51.5554 57.6104 51.4644 57.8886 51.3467C58.1667 51.2267 58.4296 51.0799 58.6775 50.9064C58.9278 50.7335 59.1589 50.5378 59.3707 50.3177C59.5821 50.0953 59.7726 49.8558 59.9396 49.5975C60.1066 49.3376 60.2473 49.0645 60.3607 48.7779C60.4762 48.4889 60.5638 48.1914 60.6218 47.8871C60.6793 47.5805 60.7095 47.2716 60.7095 46.9605V36.1637C60.3952 35.9238 60.0869 35.6793 59.7835 35.4194ZM75.5289 17.6302C73.3623 15.7838 70.2846 14.8616 66.2959 14.8616H55.0244C55.9913 18.4901 57.6531 21.7343 60.0124 24.5939C60.2325 24.8606 60.468 25.1383 60.7095 25.356V20.7121H66.2959C68.1695 20.7121 69.551 21.1854 70.4839 22.1364C70.9543 22.6697 71.3052 23.2763 71.5362 23.9584C71.769 24.6383 71.8631 25.3405 71.8183 26.0626C71.8566 26.7736 71.7498 27.4647 71.4996 28.129C71.2472 28.7934 70.8749 29.3734 70.3788 29.8666C69.9386 30.291 69.436 30.611 68.8709 30.8243C68.8496 30.8265 68.8282 30.8265 68.8069 30.8243H68.7664L69.5619 31.1443C69.6347 31.1443 69.7075 31.1998 69.776 31.2265C71.6042 31.9087 73.3305 32.8019 74.9539 33.9062C75.1204 33.7818 75.283 33.6573 75.4352 33.5262C76.1513 32.9174 76.763 32.213 77.2721 31.4109C77.7962 30.5111 78.1855 29.5534 78.4379 28.5335C78.6925 27.5158 78.8014 26.4826 78.7653 25.4316C78.7692 22.0786 77.6894 19.4789 75.5289 17.6302ZM60.0081 26.4959C58.6327 25.0361 57.4434 23.4251 56.4381 21.6698C55.4329 19.9144 54.6396 18.0591 54.0602 16.106C53.9403 15.6883 53.8609 15.3616 53.8139 15.1505V15.095L53.7667 14.8795V15.5794C53.7667 16.8481 53.8139 18.0391 53.9103 19.1523C54.5114 26.5515 56.9709 30.7865 59.5372 33.5529C59.9243 33.9662 60.3224 34.3484 60.7242 34.7061V27.2025C60.468 26.9759 60.2325 26.7359 60.0081 26.4959Z" fill="#FB005A"/>
<path d="M79.413 44.4917C79.4174 44.545 79.4174 44.5984 79.413 44.6494C79.4283 44.8806 79.4283 45.1094 79.413 45.3405C79.3386 46.8536 79.039 48.3177 78.5189 49.7335C78.2775 50.382 77.9911 51.0088 77.6593 51.6152C77.6489 51.6374 77.6379 51.6595 77.6231 51.68C77.6079 51.713 77.5909 51.7466 77.5717 51.7773C77.5356 51.4775 77.4884 51.1954 77.4452 50.9132C76.8593 47.2312 75.6597 44.7961 74.1047 43.0363C70.5349 39.0056 65.0853 38.4857 60.7095 34.6728C60.3076 34.315 59.9073 33.9351 59.5202 33.5218C56.9561 30.7532 54.496 26.5181 53.8933 19.119C53.7991 18.0058 53.752 16.8148 53.752 15.5461C53.752 15.3905 53.752 15.2328 53.752 15.0683C53.752 15.0039 53.752 14.9439 53.752 14.8795V14.8616L53.7991 15.0794V15.135C53.8461 15.3461 53.925 15.6771 54.0449 16.0904C54.627 18.0458 55.4203 19.9055 56.4278 21.6632C57.4374 23.4229 58.6283 25.0337 60.0081 26.4959C60.2325 26.7358 60.468 26.9759 60.7095 27.2025C62.5234 28.9579 64.5569 30.3733 66.8073 31.4487C67.1385 31.602 67.4681 31.7531 67.8125 31.8998C68.1592 32.0487 68.4006 32.1397 68.6979 32.2553C70.5179 32.9219 72.2376 33.8018 73.8546 34.8972L74.1732 35.1238C78.1471 38.0235 79.3402 41.4809 79.413 44.4917Z" fill="white"/>
<path d="M14.8883 45.5516C13.7504 45.5716 12.6553 45.3605 11.601 44.9161C10.6534 44.5072 9.83638 43.9073 9.14989 43.1163C8.73065 42.6097 8.38198 42.052 8.10397 41.4476L6.5791 42.8452L13.6884 49.3689L18.9241 44.5517C18.6846 44.6939 18.4386 44.8205 18.1863 44.9316C17.1275 45.3716 16.0282 45.5782 14.8883 45.5516Z" fill="white"/>
<path d="M21.0073 42.6119L21.0907 42.5408C21.0651 42.5675 21.0373 42.5897 21.0073 42.6119Z" fill="white"/>
<path d="M28.9958 35.8482C28.9958 35.6749 28.9551 35.4883 28.938 35.3038L27.5093 36.6192L28.9551 37.9413C28.9551 37.5014 28.9958 37.0659 28.9958 36.6481V35.8482Z" fill="white"/>
<path d="M45.9886 31.4554L48.7003 28.9712L45.3042 25.8605C45.8196 27.5736 46.0485 29.3289 45.9886 31.1243V31.4554Z" fill="white"/>
<path d="M6.30762 29.009L7.09261 29.7311V28.2846L6.30762 29.009Z" fill="white"/>
<path d="M6.55988 42.8452L3.18701 45.9382C3.58906 46.5559 4.03824 47.1334 4.53226 47.6738C5.80484 49.0134 7.28276 50.0242 8.97245 50.7067C9.75946 51.0287 10.568 51.2756 11.3957 51.4462L13.6692 49.3535L6.55988 42.8452Z" fill="white"/>
<path d="M0.774414 37.5547C0.827915 39.4367 1.14658 41.2698 1.73259 43.0518C2.10688 44.074 2.59241 45.0361 3.18701 45.9382L6.55988 42.8452L0.774414 37.5547Z" fill="white"/>
<path d="M11.3957 51.4462C12.5485 51.6817 13.7118 51.7978 14.8882 51.7932C15.3651 51.7932 15.8249 51.7932 16.274 51.7397L13.6583 49.3535L11.3957 51.4462Z" fill="white"/>
<path d="M8.08256 41.4476C7.90717 41.0854 7.75529 40.7121 7.62694 40.3277C7.25907 39.1367 7.08377 37.9147 7.10297 36.6637V29.7311L6.31798 29.009L0.75293 34.1129V36.6681C0.75293 36.957 0.75293 37.2569 0.75293 37.5547L6.51267 42.8452L8.08256 41.4476Z" fill="white"/>
<path d="M0.75293 23.9295V34.1129L6.30762 29.009L0.75293 23.9295Z" fill="white"/>
<path d="M36.12 44.5472C35.0164 44.3939 34.0004 43.994 33.0744 43.3496L28.2686 47.7648C28.7391 48.1778 29.2353 48.5555 29.755 48.8956C30.9142 49.6334 32.1504 50.1868 33.4615 50.5554C34.7726 50.9263 36.1071 51.0975 37.4653 51.0708C38.1947 51.0731 38.9175 51.0242 39.6383 50.924L41.3707 49.3313L36.12 44.5472Z" fill="white"/>
<path d="M25.2165 47.6738C25.4475 47.4292 25.6613 47.1738 25.871 46.9115L21.0908 42.563L21.0073 42.6319C20.8855 42.8208 20.755 43.003 20.6159 43.1763C20.1241 43.7451 19.5573 44.2139 18.9135 44.585L13.6777 49.4024L16.2957 51.7887C17.8484 51.6863 19.3498 51.3444 20.7978 50.7557C22.4853 50.0577 23.9568 49.031 25.2165 47.6738Z" fill="white"/>
<path d="M22.6629 32.2064V36.6681C22.6778 37.9213 22.5046 39.1456 22.1389 40.3388C21.8929 41.1187 21.5443 41.8431 21.0908 42.5141L27.5093 36.6415L22.6629 32.2064Z" fill="white"/>
<path d="M24.7612 21.1032C24.6777 21.2765 24.588 21.4521 24.5046 21.6476C23.6405 23.6362 23.0908 25.7138 22.8555 27.8825L27.4988 23.6207L24.7612 21.1032Z" fill="white"/>
<path d="M41.3706 49.3268L42.3758 50.2557C43.9371 49.7136 45.3488 48.8956 46.6149 47.8046C47.8786 46.7114 48.9097 45.416 49.7052 43.9207L48.4864 42.8008L41.3706 49.3268Z" fill="white"/>
<path d="M39.6382 50.9178C40.5728 50.7909 41.4861 50.5708 42.3758 50.2557L41.3621 49.3268L39.6382 50.9178Z" fill="white"/>
<path d="M51.1984 40.3011L48.4756 42.8008L49.6949 43.9207C49.9304 43.4918 50.1609 43.0452 50.3646 42.5786C50.6892 41.8386 50.9674 41.0788 51.1984 40.3011Z" fill="white"/>
<path d="M45.9886 31.4554L45.9884 33.053C45.9884 36.0171 45.6163 37.8858 44.8677 39.5011L48.4756 42.8008L51.1984 40.3011C51.8741 37.9368 52.1994 35.5193 52.1715 33.053V32.1464L48.7003 28.9712L45.9886 31.4554Z" fill="white"/>
<path d="M52.1715 32.1464L52.1716 30.9976C52.1738 29.3756 52.0286 27.7691 51.7373 26.176L48.7003 28.9712L52.1715 32.1464Z" fill="white"/>
<path d="M28.0226 43.0518C28.5659 41.4009 28.8782 39.7056 28.9551 37.9635L27.5093 36.6415L21.0907 42.5408L25.871 46.8894C26.1191 46.5848 26.3502 46.2693 26.5619 45.9449C27.1586 45.0405 27.6462 44.0762 28.0226 43.0518Z" fill="white"/>
<path d="M31.1257 41.312C30.6916 40.721 30.3216 40.0877 30.0158 39.4145C29.8789 40.9987 29.5303 42.5319 28.9699 44.014C28.5849 45.0694 28.0887 46.0649 27.4771 46.998C27.7293 47.2602 28.001 47.498 28.2641 47.738L33.0678 43.3229C32.3064 42.7719 31.6604 42.1009 31.1257 41.312Z" fill="white"/>
<path d="M2.37647 0.258911H1.98291L7.0818 4.92941C7.06893 4.61841 7.02621 4.30951 6.95565 4.00731C6.8872 3.70291 6.78881 3.40961 6.66468 3.12521C6.54074 2.84301 6.39098 2.57421 6.2177 2.31861C6.04231 2.06531 5.84772 1.82981 5.63172 1.61431C5.4136 1.39871 5.17831 1.20761 4.92592 1.03871C4.67354 0.869912 4.40829 0.725512 4.13028 0.609912C3.85005 0.494412 3.56349 0.407712 3.26839 0.347712C2.97319 0.287712 2.67588 0.258911 2.37647 0.258911Z" fill="white"/>
<path d="M6.30762 29.009L7.09261 28.2846L7.09232 17.9613L0.75293 23.9295L6.30762 29.009Z" fill="white"/>
<path d="M0.75293 23.9295L7.09232 17.9613L0.75293 12.1597V23.9295Z" fill="white"/>
<path d="M22.8551 27.8713C22.7269 28.969 22.6605 30.0689 22.6626 31.1732L22.6629 32.2064L27.5093 36.6415L28.938 35.3038C28.876 34.6239 28.8395 33.8684 28.8395 33.0307V30.9221C28.8437 30.0689 28.8951 29.2201 28.9956 28.3735C29.1046 27.4158 29.3271 26.487 29.6608 25.5894L27.4985 23.6096L22.8551 27.8713Z" fill="white"/>
<path d="M7.09232 17.9613V5.15833L0.75293 12.1597L7.09232 17.9613Z" fill="white"/>
<path d="M1.98291 0.258911H0.75293V12.1597L7.09232 5.15833C7.09232 5.08053 7.09232 5.00501 7.09232 4.92941L1.98291 0.258911Z" fill="white"/>
<path d="M44.8677 39.5011C44.5554 40.1611 44.1919 40.7899 43.7791 41.3876C42.3076 43.5629 40.203 44.6494 37.4654 44.6494C37.0141 44.6494 36.5671 44.6095 36.1201 44.5361L41.3559 49.3421L48.4609 42.8186L44.8677 39.5011Z" fill="white"/>
<path d="M27.4985 23.6096L29.6608 25.5894C29.7613 25.3272 29.8661 25.0783 29.9795 24.8339C30.3152 24.1384 30.7067 23.4785 31.1536 22.8541C31.5022 22.3297 31.9065 21.8564 32.3706 21.4387C32.8347 21.021 33.3417 20.6699 33.8892 20.3833C34.4389 20.0989 35.0142 19.89 35.613 19.7545C36.214 19.6211 36.8215 19.5656 37.4352 19.5922C37.8074 19.5922 38.1795 19.6167 38.5496 19.6633L35.1724 16.5748L27.4985 23.6096Z" fill="white"/>
<path d="M38.849 13.1819C38.3763 13.1396 37.9058 13.1108 37.4139 13.1108C35.6686 13.0952 33.9726 13.3885 32.3257 13.9862L35.1532 16.5748L38.849 13.1819Z" fill="white"/>
<path d="M32.3257 13.9862C31.406 14.3262 30.5333 14.7639 29.7078 15.3016C29.4619 15.4594 29.2266 15.6283 28.9956 15.8082C27.1626 17.2103 25.7514 18.9745 24.7612 21.1032L27.4985 23.6096L35.1532 16.5748L32.3257 13.9862Z" fill="white"/>
<path d="M35.1532 16.5748L38.5283 19.6633C39.4415 19.7522 40.3056 20.0144 41.1205 20.4522C41.9353 20.8899 42.6433 21.4676 43.2401 22.1897L38.849 13.1819L35.1532 16.5748Z" fill="white"/>
<path d="M48.0054 17.8147C47.1648 16.8214 46.2066 15.9771 45.1243 15.2816C43.1973 14.0484 41.1014 13.3485 38.8428 13.1819L45.612 20.0055L48.0054 17.8147Z" fill="white"/>
<path d="M38.849 13.1819L43.2401 22.1897L45.6163 20.0055L38.849 13.1819Z" fill="white"/>
<path d="M45.6163 20.0055L43.2402 22.1808C43.4263 22.3942 43.6017 22.6208 43.7642 22.8541C44.4294 23.7718 44.9534 24.7717 45.3341 25.8493L48.7326 28.9601L51.7675 26.1648L45.6163 20.0055Z" fill="white"/>
<path d="M51.7373 26.176C51.451 24.5628 50.9761 23.0119 50.3131 21.5232C49.7185 20.17 48.9488 18.9323 48.0054 17.8147L45.6162 19.99L51.7373 26.176Z" fill="white"/>
</svg>
