<svg width="312" height="296" viewBox="0 0 312 296" fill="none" xmlns="http://www.w3.org/2000/svg">
<path d="M18 131.257V271C18 284.807 29.1929 296 43 296H287C300.807 296 312 284.807 312 271V238.168C311.512 237.197 311.183 236.129 311.049 235.009C308.64 214.936 296.591 204.9 274.9 204.9H265.367C263.392 204.9 261.497 205.643 259.982 206.909C244.587 219.77 225.659 226.2 203.2 226.2C176 226.2 153.8 218.2 136.6 202.2C119.6 186.2 111.1 162.2 111.1 130.2C111.1 123.948 111.432 117.474 112.097 110.778C112.494 106.78 115.906 103.8 119.924 103.8H144.091C148.988 103.8 152.722 108.162 152.223 113.034C151.608 119.044 151.3 124.966 151.3 130.8C151.3 150.6 155.9 165.5 165.1 175.5C174.5 185.3 186.8 190.2 202 190.2C216.2 190.2 226.9 186.1 234.1 177.9C241.5 169.5 245.2 159.1 245.2 146.7C245.2 139.1 243.8 132.9 241 128.1C238.2 123.3 234 120.9 228.4 120.9C223.6 120.9 219.8 122.7 217 126.3C214.4 129.7 213.1 134.2 213.1 139.8C213.1 141.888 213.264 144.036 213.593 146.243C214.408 151.708 210.598 157.2 205.073 157.2H185.477C182.378 157.2 179.502 155.428 178.492 152.498C176.564 146.908 175.6 140.775 175.6 134.1C175.6 119.7 180.2 108.3 189.4 99.8999C198.8 91.4999 211.2 87.2999 226.6 87.2999C244.8 87.2999 259.4 92.9999 270.4 104.4C281.6 115.8 287.2 130.2 287.2 147.6C287.2 152.743 286.771 157.636 285.912 162.278C285.056 166.909 289.076 171.664 293.601 172.968C300.388 174.924 311.5 169.494 311.5 162.431V83.3C311.5 78.8817 307.918 75.2999 303.5 75.2999H102C99.8939 75.2999 97.978 74.4861 96.5494 73.1558L96.7615 147.237C96.799 160.345 82.6137 168.562 71.2616 162.008L18 131.257Z" fill="white"/>
<path d="M96.4657 43.9232C97.9027 42.5461 99.8525 41.7 102 41.7H312V27C312 13.1929 300.807 2 287 2H96.3456L96.4657 43.9232Z" fill="white"/>
<path d="M15 0C6.71572 0 0 6.71573 0 15V164.842C0 170.804 3.5309 176.2 8.99417 178.587L36.9072 190.784C46.8392 195.123 57.9539 187.82 57.9129 176.982L57.2998 14.9432C57.2685 6.68117 50.562 0 42.2999 0H15Z" fill="#FFC700" fill-opacity="0.95"/>
</svg>
