<svg width="32" height="32" viewBox="0 0 32 32" fill="none" xmlns="http://www.w3.org/2000/svg">
<path d="M16 0C20.2435 0 24.3131 1.68571 27.3137 4.68629C30.3143 7.68687 32 11.7565 32 16C32 20.2435 30.3143 24.3131 27.3137 27.3137C24.3131 30.3143 20.2435 32 16 32C11.7565 32 7.68687 30.3143 4.68629 27.3137C1.68571 24.3131 0 20.2435 0 16C0 11.7565 1.68571 7.68687 4.68629 4.68629C7.68687 1.68571 11.7565 0 16 0ZM16 14.0594L12.2834 10.3429C12.0261 10.0855 11.6771 9.94095 11.3131 9.94095C10.9492 9.94095 10.6002 10.0855 10.3429 10.3429C10.0855 10.6002 9.94095 10.9492 9.94095 11.3131C9.94095 11.6771 10.0855 12.0261 10.3429 12.2834L14.0594 16L10.3429 19.7166C10.2154 19.844 10.1144 19.9953 10.0454 20.1617C9.97645 20.3282 9.94095 20.5067 9.94095 20.6869C9.94095 20.8671 9.97645 21.0455 10.0454 21.212C10.1144 21.3785 10.2154 21.5297 10.3429 21.6571C10.4703 21.7846 10.6215 21.8856 10.788 21.9546C10.9545 22.0236 11.1329 22.059 11.3131 22.059C11.4933 22.059 11.6718 22.0236 11.8383 21.9546C12.0047 21.8856 12.156 21.7846 12.2834 21.6571L16 17.9406L19.7166 21.6571C19.844 21.7846 19.9953 21.8856 20.1617 21.9546C20.3282 22.0236 20.5067 22.059 20.6869 22.059C20.8671 22.059 21.0455 22.0236 21.212 21.9546C21.3785 21.8856 21.5297 21.7846 21.6571 21.6571C21.7846 21.5297 21.8856 21.3785 21.9546 21.212C22.0236 21.0455 22.059 20.8671 22.059 20.6869C22.059 20.5067 22.0236 20.3282 21.9546 20.1617C21.8856 19.9953 21.7846 19.844 21.6571 19.7166L17.9406 16L21.6571 12.2834C21.7846 12.156 21.8856 12.0047 21.9546 11.8383C22.0236 11.6718 22.059 11.4933 22.059 11.3131C22.059 11.1329 22.0236 10.9545 21.9546 10.788C21.8856 10.6215 21.7846 10.4703 21.6571 10.3429C21.5297 10.2154 21.3785 10.1144 21.212 10.0454C21.0455 9.97645 20.8671 9.94095 20.6869 9.94095C20.5067 9.94095 20.3282 9.97645 20.1617 10.0454C19.9953 10.1144 19.844 10.2154 19.7166 10.3429L16 14.0594Z" fill="white"/>
</svg>
