<svg xmlns="http://www.w3.org/2000/svg" width="256" height="256" viewBox="0 0 100 100"><rect width="100" height="100" rx="50" fill="#222222"></rect><path fill="#3d9bff" d="M56.99 58.42L56.99 73.71Q56.99 76.70 56.61 78.81Q56.24 80.92 55.58 82.23Q54.92 83.55 53.98 84.17Q53.03 84.78 51.93 84.78L51.93 84.78Q51.10 84.78 50.09 84.21Q49.08 83.64 48.18 82.81Q47.28 81.97 46.68 81.09Q46.09 80.21 46.09 79.55L46.09 79.55Q46.09 79.11 46.20 79.00Q46.31 78.89 46.51 78.92Q46.70 78.94 46.99 79.03Q47.28 79.11 47.63 79.11L47.63 79.11Q48.86 79.11 49.41 77.55Q49.96 75.99 49.96 72.57L49.96 72.57L49.96 58.42L45.30 58.42Q44.59 58.42 44.00 57.98Q43.41 57.54 42.97 56.88Q42.53 56.22 42.29 55.43Q42.05 54.64 42.05 53.93L42.05 53.93Q42.05 53.19 42.38 52.66Q42.71 52.13 43.41 52.13L43.41 52.13L49.96 52.13L49.96 22.86Q45.21 23.17 41.30 24.27Q37.39 25.37 34.58 27.61Q31.76 29.85 30.20 33.43Q28.64 37.01 28.64 42.33L28.64 42.33Q28.64 44.66 29.10 46.53Q29.57 48.40 30.31 49.89Q31.06 51.38 31.96 52.53Q32.86 53.67 33.74 54.55L33.74 54.55Q34.49 54.33 34.79 54.72Q35.10 55.12 35.10 55.82L35.10 55.82Q35.10 56.70 34.73 57.65Q34.36 58.59 33.74 59.36Q33.13 60.13 32.36 60.63Q31.59 61.14 30.80 61.14L30.80 61.14Q30.44 61.14 30.11 61.05Q29.79 60.96 29.43 60.66L29.43 60.66Q28.47 59.95 27.10 58.35Q25.74 56.75 24.51 54.37Q23.28 52.00 22.40 48.95Q21.52 45.89 21.52 42.33L21.52 42.33Q21.52 29.37 29.81 22.56Q38.09 15.74 54.26 15.74L54.26 15.74Q55.49 15.74 57.36 15.77Q59.23 15.79 61.34 15.79Q63.45 15.79 65.62 15.83Q67.80 15.88 69.67 15.88Q71.53 15.88 72.87 15.90Q74.21 15.92 74.70 15.92L74.70 15.92Q75.36 15.92 75.80 15.81Q76.24 15.70 76.52 15.57Q76.81 15.44 76.96 15.33Q77.11 15.22 77.25 15.22L77.25 15.22Q77.47 15.22 77.69 15.50Q77.91 15.79 78.08 16.21Q78.26 16.62 78.37 17.15Q78.48 17.68 78.48 18.21L78.48 18.21Q78.48 19.00 78.23 19.85Q77.99 20.71 77.47 21.39Q76.94 22.07 76.17 22.51Q75.40 22.95 74.35 22.95L74.35 22.95Q73.95 22.95 72.90 22.93Q71.84 22.91 70.37 22.89Q68.90 22.86 67.14 22.84Q65.38 22.82 63.60 22.80Q61.82 22.78 60.11 22.75Q58.39 22.73 56.99 22.69L56.99 22.69L56.99 52.13L68.24 52.13Q68.94 51.60 69.29 51.87Q69.64 52.13 69.71 52.83Q69.78 53.54 69.62 54.50Q69.47 55.47 69.14 56.33Q68.81 57.19 68.37 57.80Q67.93 58.42 67.40 58.42L67.40 58.42L56.99 58.42Z"></path></svg>