<svg xmlns="http://www.w3.org/2000/svg" width="256" height="256" viewBox="0 0 100 100"><rect width="100" height="100" rx="50" fill="#ffffff"></rect><path d="M49.98 26.46L49.98 26.46Q49.98 26.66 49.94 27.70Q49.90 28.73 49.82 30.39Q49.75 32.05 49.65 34.22Q49.55 36.39 49.41 38.87Q49.28 41.35 49.14 44.04Q49.00 46.74 48.89 49.43L48.89 49.43Q51.11 49.47 53.01 49.69Q54.90 49.90 56.39 50.14L56.39 50.14Q57.68 50.37 58.48 50.57Q59.28 50.76 59.77 50.94Q60.25 51.11 60.51 51.33Q60.76 51.54 60.96 51.82L60.96 51.82Q61.11 52.05 61.41 52.23Q61.70 52.40 61.97 52.58Q62.25 52.75 62.44 52.95Q62.64 53.14 62.64 53.42L62.64 53.42Q62.64 53.73 62.42 53.98Q62.21 54.24 61.89 54.32L61.89 54.32Q61.54 54.43 60.25 54.51Q58.96 54.59 56.31 54.71L56.31 54.71Q54.86 54.79 52.83 54.82Q50.80 54.86 48.61 54.94L48.61 54.94Q48.50 57.32 48.36 59.47Q48.22 61.62 48.13 63.36Q48.03 65.10 47.95 66.31Q47.87 67.52 47.83 68.07L47.83 68.07Q47.71 69.59 47.15 71.72Q46.58 73.85 45.35 76.13Q44.12 78.42 42.13 80.64Q40.14 82.87 37.09 84.59L37.09 84.59Q36.54 84.86 36.27 84.86L36.27 84.86Q35.68 84.86 35.68 84.39L35.68 84.39Q35.68 84.08 36.11 83.57L36.11 83.57Q37.48 82.13 38.38 80.74Q39.28 79.36 39.84 77.60Q40.41 75.84 40.70 73.52Q41.00 71.19 41.19 67.91L41.19 67.91Q41.23 66.97 41.31 65.25L41.31 65.25Q41.39 63.77 41.50 61.33Q41.62 58.89 41.82 55.10L41.82 55.10Q39.12 55.18 37.85 55.35Q36.58 55.53 36.31 55.64L36.31 55.64Q36.07 55.72 36.05 55.90Q36.04 56.07 36.00 56.25Q35.96 56.43 35.84 56.56Q35.72 56.70 35.33 56.70L35.33 56.70Q35.06 56.70 34.65 56.58Q34.24 56.46 33.87 56.25Q33.50 56.04 33.22 55.74Q32.95 55.45 32.95 55.10L32.95 55.10Q32.95 54.43 33.77 53.54L33.77 53.54Q33.96 53.34 34.49 52.87Q35.02 52.40 36.00 51.88Q36.97 51.35 38.46 50.82Q39.94 50.29 42.09 49.94L42.09 49.94L43.11 31.11Q43.14 30.61 43.22 29.92Q43.30 29.24 43.55 28.59Q43.81 27.95 44.34 27.42Q44.86 26.89 45.80 26.70L45.80 26.70Q46.50 26.54 47.05 26.17Q47.60 25.80 48.05 25.41Q48.50 25.02 48.87 24.71Q49.24 24.39 49.55 24.39L49.55 24.39Q49.71 24.39 49.80 24.59Q49.90 24.79 49.94 25.10Q49.98 25.41 49.98 25.78Q49.98 26.15 49.98 26.46ZM72.95 18.30L72.95 18.30Q72.87 18.73 72.62 19.00Q72.36 19.28 72.09 19.55Q71.82 19.82 71.56 20.10Q71.31 20.37 71.27 20.80L71.27 20.80Q71.15 21.70 70.33 22.27Q69.51 22.83 68.42 22.83L68.42 22.83Q67.48 22.83 65.29 22.71Q63.11 22.60 60.29 22.60L60.29 22.60Q57.17 22.60 53.87 22.83Q50.57 23.07 47.44 23.57Q44.32 24.08 41.56 24.90Q38.81 25.72 36.74 26.91Q34.67 28.11 33.46 29.67Q32.25 31.23 32.25 33.22L32.25 33.22Q32.25 36.04 33.18 38.18Q34.12 40.33 35.27 41.86Q36.43 43.38 37.36 44.28Q38.30 45.18 38.30 45.49L38.30 45.49Q38.30 45.84 37.79 46.11Q37.29 46.39 36.31 46.39L36.31 46.39Q34.12 46.39 32.36 45.43Q30.61 44.47 29.34 42.89Q28.07 41.31 27.38 39.28Q26.70 37.25 26.70 35.06L26.70 35.06Q26.70 31.70 28.28 28.71Q29.86 25.72 32.66 23.34Q35.45 20.96 39.20 19.24Q42.95 17.52 47.29 16.70L47.29 16.70Q52.40 15.72 56.70 15.43Q61.00 15.14 64.39 15.14L64.39 15.14Q67.52 15.14 69.32 15.35Q71.11 15.57 71.99 15.88Q72.87 16.19 73.09 16.56Q73.30 16.93 73.30 17.25L73.30 17.25Q73.30 17.48 73.16 17.71Q73.03 17.95 72.95 18.30Z" fill="#007bff"></path></svg>