<svg width="482" height="482" xmlns="http://www.w3.org/2000/svg" xmlns:xlink="http://www.w3.org/1999/xlink" overflow="hidden"><defs><clipPath id="clip0"><rect x="239" y="119" width="482" height="482"/></clipPath></defs><g clip-path="url(#clip0)" transform="translate(-239 -119)"><path d="M240 360C240 227.452 347.452 120 480 120 612.548 120 720 227.452 720 360 720 492.548 612.548 600 480 600 347.452 600 240 492.548 240 360Z" fill="#182A30" fill-rule="evenodd"/><path d="M476.853 155 481 155.176 481 192.361 478.547 192.202C450.182 192.202 423.297 199.579 397.892 214.333 372.486 229.087 352.648 248.961 338.379 273.955 333.029 283.328 328.681 293.103 325.337 303.282L322.854 314.504 480.495 314.504 480.495 347.367 480.137 347.367 480.137 453.85 481 453.761 481 510.173 463.872 512C427.399 512 396.532 497.092 371.272 467.276 346.013 437.46 333.383 401.285 333.383 358.75 333.427 358.477 333.47 358.204 333.513 357.931L379.543 357.931C379.505 358.204 368.972 357.479 368.934 357.752 368.934 384.548 380.973 416.464 393.9 435.205 406.828 453.946 429.996 466.663 446.499 470.198L447.515 449.298 447.515 347.367 317.58 347.367 286.635 347.367 278 347.367 279.035 330.587C282.376 304.019 290.729 278.963 304.092 255.419 321.911 224.027 346.206 199.443 376.976 181.666 407.747 163.889 441.039 155 476.853 155Z" fill="#FFFFFF" fill-rule="evenodd"/><path d="M523.985 380.717 523.985 521.534 532.489 519.599C542.604 516.21 552.408 511.804 561.899 506.382 587.211 491.922 606.956 472.149 621.134 447.061 631.767 428.245 638.413 407.861 641.071 385.91L641.379 380.717ZM523.985 258.891 523.985 353.206 538.411 350.967C545.303 348.642 551.596 345.153 557.288 340.501 568.674 331.199 574.367 319.732 574.367 306.1 574.367 292.534 568.633 281.051 557.167 271.651 551.433 266.952 545.08 263.427 538.107 261.076ZM515.692 231 515.694 231 523.985 231 523.985 231.618 534.048 232.369C551.736 235.106 567.424 241.95 581.112 252.9 599.362 267.5 608.487 285.299 608.487 306.294 608.487 321.896 603.423 335.699 593.294 347.703L583.99 356.682 641.998 356.682 641.998 356.681 681.697 356.681 682 363.566C682 419.794 662.491 467.492 623.474 506.66 589.334 540.931 548.642 560.209 501.396 564.493L490 565 490 527.41 491.462 527.319 491.462 231 515.691 231Z" fill="#FFFFFF" fill-rule="evenodd"/><path d="M480 155 498.228 155.772C547.074 159.997 588.649 179.01 622.955 212.81 652.359 241.782 670.738 275.772 678.089 314.78L681 347 641.561 347 640.729 333.122C638.063 311.457 631.4 291.425 620.738 273.028 606.523 248.497 586.509 228.864 560.696 214.128 541.336 203.076 521.094 196.168 499.968 193.405L480 192.117Z" fill="#54DEFE" fill-rule="evenodd"/><path d="M279.536 357 319.145 357 318.636 365.552C318.636 411.04 334.437 449.451 366.04 480.787 397.642 512.123 435.732 527.791 480.309 527.791L492 527.07 492 564.546 481.743 565C424.861 565 376.85 545.571 337.71 506.714 298.57 467.857 279 420.846 279 365.682Z" fill="#54DEFE" fill-rule="evenodd"/></g></svg>